<svg width="32" height="25" viewBox="0 0 32 25" fill="none" xmlns="http://www.w3.org/2000/svg">
<g clip-path="url(#clip0)">
<path d="M4.9 0C4.6 0 4.3 0.1 4.1 0.3C3.9 0.5 3.8 0.8 3.8 1.1V18.3C3.8 18.9 4.3 19.4 4.9 19.4C7.6 19.4 12 20 15.1 23.2V5.2C15.1 5 15 4.8 14.9 4.6C12.4 0.6 7.6 0 4.9 0Z" fill="#00519C"/>
<path d="M28.2 18.3V1.1C28.2 0.8 28.1 0.5 27.9 0.3C27.7 0.1 27.4 0 27.1 0C24.4 0 19.6 0.6 17 4.7C16.9 4.9 16.8 5.1 16.8 5.3V23.3C19.9 20.1 24.3 19.5 27 19.5C27.7 19.5 28.2 18.9 28.2 18.3Z" fill="#00519C"/>
<path d="M30.9 4H30V18.4C30 20 28.7 21.3 27.1 21.3C24.8 21.3 21.1 21.7 18.5 24.2C23.1 23.1 27.9 23.8 30.6 24.4C30.9 24.5 31.3 24.4 31.6 24.2C31.9 24 32 23.7 32 23.3V5.1C32 4.5 31.5 4 30.9 4Z" fill="#00519C"/>
<path d="M2 18.3V4H1.1C0.5 4 0 4.5 0 5.1V23.3C0 23.7 0.2 24 0.4 24.2C0.7 24.4 1 24.5 1.4 24.4C4.1 23.8 9 23 13.5 24.2C10.9 21.7 7.1 21.3 4.9 21.3C3.3 21.2 2 19.9 2 18.3Z" fill="#00519C"/>
</g>
<defs>
<clipPath id="clip0">
<rect width="32" height="24.4" fill="white"/>
</clipPath>
</defs>
</svg>
