<svg width="133" height="119" viewBox="0 0 133 119" fill="none" xmlns="http://www.w3.org/2000/svg">
<g clip-path="url(#clip0)">
<path d="M3.8147e-06 94.3638C3.8147e-06 96.2893 1.73442 97.8502 3.87377 97.8502C6.01312 97.8502 7.74754 96.2893 7.74754 94.3638V92.0396C7.74754 82.6205 10.3251 73.7295 14.8797 65.8956C28.3536 81.4421 48.9022 90.8775 71.5355 90.8775C93.5953 90.8775 114.784 81.5906 128.351 65.3106L131.45 61.5918C131.454 61.5862 131.458 61.5802 131.463 61.5746C132.478 60.343 132.473 58.6518 131.463 57.4251C131.458 57.4195 131.455 57.4135 131.45 57.4079L128.351 53.6891C114.967 37.6287 93.8985 28.1222 71.5355 28.1222C48.912 28.1222 28.3573 37.5534 14.8797 53.1041C10.3251 45.2706 7.74754 36.3796 7.74754 26.9606V24.6363C7.74754 22.7109 6.01312 21.1499 3.87377 21.1499C1.73442 21.1499 3.8147e-06 22.7109 3.8147e-06 24.6363V26.9606C3.8147e-06 38.5823 3.47968 49.7399 9.99639 59.5002C3.47968 69.2602 3.8147e-06 80.4178 3.8147e-06 92.0396L3.8147e-06 94.3638ZM122.153 57.873L123.509 59.5L122.153 61.1269C113.283 71.7704 100.494 79.2106 86.3429 82.3026C80.9436 75.7326 77.9918 67.7162 77.9918 59.5C77.9918 51.2837 80.9436 43.2676 86.3429 36.6973C100.494 39.7893 113.283 47.2295 122.153 57.873ZM71.5355 35.0952C73.6883 35.0952 75.8297 35.2017 77.9539 35.3995C72.9492 42.58 70.2443 50.9492 70.2443 59.5C70.2443 68.0507 72.9492 76.4201 77.9539 83.6004C75.8297 83.798 73.6883 83.9047 71.5355 83.9047C49.9055 83.9047 30.7587 74.2418 19.2188 59.5C30.7587 44.7583 49.9055 35.0952 71.5355 35.0952Z" fill="#00519C"/>
<path d="M85.7393 59.4999C85.7393 65.2671 90.9527 69.9591 97.3606 69.9591C103.769 69.9591 108.982 65.2671 108.982 59.4999C108.982 53.7328 103.769 49.0408 97.3606 49.0408C90.9527 49.0408 85.7393 53.7328 85.7393 59.4999ZM97.3606 56.0136C99.4966 56.0136 101.234 57.5775 101.234 59.4999C101.234 61.4223 99.4966 62.9863 97.3606 62.9863C95.2247 62.9863 93.4869 61.4223 93.4869 59.4999C93.4869 57.5775 95.2247 56.0136 97.3606 56.0136Z" fill="#00519C"/>
</g>
<defs>
<clipPath id="clip0">
<rect width="132.222" height="119" fill="white"/>
</clipPath>
</defs>
</svg>
