<svg width="67" height="61" viewBox="0 0 67 61" fill="none" xmlns="http://www.w3.org/2000/svg">
<g clip-path="url(#clip0)">
<path d="M0 48.3711C0 49.3581 0.878867 50.1583 1.96293 50.1583C3.04698 50.1583 3.92585 49.3581 3.92585 48.3711V47.1797C3.92585 42.3515 5.23198 37.7939 7.53986 33.7782C14.3674 41.7474 24.7798 46.584 36.2487 46.584C47.4269 46.584 58.1636 41.8235 65.0382 33.4783L66.6086 31.572C66.6109 31.5692 66.6128 31.5661 66.6151 31.5632C67.1294 30.9319 67.1273 30.065 66.6151 29.4361C66.6128 29.4333 66.6111 29.4302 66.6086 29.4273L65.0382 27.521C58.2563 19.2884 47.5805 14.4154 36.2487 14.4154C24.7848 14.4154 14.3693 19.2498 7.53986 27.2212C5.23198 23.2057 3.92585 18.6481 3.92585 13.8199V12.6284C3.92585 11.6415 3.04698 10.8413 1.96293 10.8413C0.878867 10.8413 0 11.6415 0 12.6284V13.8199C0 19.7772 1.76323 25.4967 5.06539 30.4999C1.76323 35.5029 0 41.2223 0 47.1797L0 48.3711ZM61.8976 29.6657L62.5846 30.4997L61.8976 31.3337C57.4031 36.7896 50.9227 40.6035 43.7519 42.1885C41.016 38.8207 39.5202 34.7114 39.5202 30.4997C39.5202 26.288 41.016 22.1789 43.7519 18.811C50.9227 20.396 57.4031 24.2098 61.8976 29.6657ZM36.2487 17.9898C37.3395 17.9898 38.4246 18.0443 39.501 18.1457C36.965 21.8265 35.5944 26.1166 35.5944 30.4997C35.5944 34.8829 36.965 39.1731 39.501 42.8538C38.4246 42.955 37.3395 43.0097 36.2487 43.0097C25.2882 43.0097 15.5861 38.0565 9.73859 30.4997C15.5861 22.9431 25.2882 17.9898 36.2487 17.9898Z" fill="#00519C"/>
<path d="M43.4461 30.5001C43.4461 33.4564 46.0878 35.8615 49.3349 35.8615C52.5819 35.8615 55.2236 33.4564 55.2236 30.5001C55.2236 27.5438 52.5819 25.1387 49.3349 25.1387C46.0878 25.1387 43.4461 27.5438 43.4461 30.5001ZM49.3349 28.713C50.4172 28.713 51.2978 29.5147 51.2978 30.5001C51.2978 31.4855 50.4172 32.2872 49.3349 32.2872C48.2525 32.2872 47.3719 31.4855 47.3719 30.5001C47.3719 29.5147 48.2525 28.713 49.3349 28.713Z" fill="#00519C"/>
</g>
<defs>
<clipPath id="clip0">
<rect width="67" height="61" fill="white"/>
</clipPath>
</defs>
</svg>
