<svg width="32" height="32" viewBox="0 0 32 32" fill="none" xmlns="http://www.w3.org/2000/svg">
<path d="M16 32C24.8366 32 32 24.8366 32 16C32 7.16344 24.8366 0 16 0C7.16344 0 0 7.16344 0 16C0 24.8366 7.16344 32 16 32Z" fill="#F0F0F0"/>
<path d="M3.3 6.30005C2 7.90005 1.1 9.80005 0.5 11.9H8.8L3.3 6.30005Z" fill="#0052B4"/>
<path d="M31.4 11.8C30.8 9.79995 29.9 7.89995 28.6 6.19995L23 11.8H31.4Z" fill="#0052B4"/>
<path d="M0.599976 20.2C1.19998 22.2 2.09998 24.0999 3.39998 25.7999L8.99998 20.2H0.599976Z" fill="#0052B4"/>
<path d="M25.7 3.3C24.1 2 22.2 1.1 20.1 0.5V8.8L25.7 3.3Z" fill="#0052B4"/>
<path d="M6.29999 28.7C7.89999 30 9.79999 30.9 11.9 31.5V23.2L6.29999 28.7Z" fill="#0052B4"/>
<path d="M11.8 0.599976C9.80001 1.19998 7.90001 2.09998 6.20001 3.39998L11.8 8.99998V0.599976Z" fill="#0052B4"/>
<path d="M20.2 31.4C22.2 30.8 24.1 29.9 25.8 28.6L20.2 23V31.4Z" fill="#0052B4"/>
<path d="M23.1 20.2L28.7 25.7999C30 24.1999 30.9 22.3 31.5 20.2H23.1Z" fill="#0052B4"/>
<path d="M31.9 13.9H18.1V0.1C17.4 0 16.7 0 16 0C15.3 0 14.6 0 13.9 0.1V13.9H0.1C0 14.6 0 15.3 0 16C0 16.7 0 17.4 0.1 18.1H13.9V31.9C14.6 32 15.3 32 16 32C16.7 32 17.4 32 18.1 31.9V18.1H31.9C32 17.4 32 16.7 32 16C32 15.3 32 14.6 31.9 13.9Z" fill="#D80027"/>
<path d="M20.2 20.2L27.3 27.2999C27.6 26.9999 27.9 26.5999 28.2 26.2999L22.1 20.2H20.2Z" fill="#D80027"/>
<path d="M11.8 20.2L4.70001 27.2999C5.00001 27.5999 5.40001 27.9 5.70001 28.2L11.8 22.1V20.2Z" fill="#D80027"/>
<path d="M11.8 11.8L4.70001 4.69995C4.40001 4.99995 4.00001 5.39995 3.70001 5.69995L9.80001 11.8H11.8Z" fill="#D80027"/>
<path d="M20.2 11.8L27.3 4.70005C27 4.40005 26.6 4.10005 26.3 3.80005L20.2 9.90005V11.8Z" fill="#D80027"/>
</svg>
