<svg width="51" height="6" viewBox="0 0 51 6" fill="none" xmlns="http://www.w3.org/2000/svg">
<path d="M43.9065 6C41.9496 6 40.9712 4.7234 40.1151 3.57447C39.259 2.55319 38.7698 1.91489 37.7914 1.91489C36.6906 1.91489 36.2014 2.55319 35.4676 3.57447C34.6115 4.59575 33.6331 6 31.6763 6C29.7194 6 28.741 4.7234 27.8849 3.57447C27.0288 2.55319 26.5396 1.91489 25.5611 1.91489C24.4604 1.91489 23.9712 2.55319 23.2374 3.57447C22.3813 4.59575 21.4029 6 19.446 6C17.4892 6 16.5108 4.7234 15.6547 3.57447C14.7986 2.55319 14.3094 1.91489 13.3309 1.91489C12.2302 1.91489 11.741 2.55319 11.0072 3.57447C10.0288 4.59575 9.05036 6 7.09352 6C5.13669 6 4.15827 4.7234 3.30216 3.57447C2.44604 2.42553 1.95683 1.91489 0.856115 1.91489C0.366906 1.91489 0 1.40426 0 0.893617C0 0.382979 0.366906 0 0.856115 0C2.81295 0 3.79137 1.2766 4.64748 2.42553C5.5036 3.44681 5.99281 4.08511 6.97122 4.08511C7.94964 4.08511 8.56115 3.44681 9.41726 2.42553C10.2734 1.2766 11.2518 0 13.2086 0C15.1655 0 16.1439 1.2766 17 2.42553C17.8561 3.44681 18.3453 4.08511 19.3237 4.08511C20.4245 4.08511 20.9137 3.44681 21.6475 2.42553C22.5036 1.2766 23.482 0 25.4388 0C27.3957 0 28.3741 1.2766 29.2302 2.42553C30.0863 3.44681 30.5755 4.08511 31.554 4.08511C32.6547 4.08511 33.1439 3.44681 33.8777 2.42553C34.8561 1.2766 35.8345 0 37.7914 0C39.7482 0 40.7266 1.2766 41.5827 2.42553C42.4388 3.44681 42.9281 4.08511 43.9065 4.08511C45.0072 4.08511 45.4964 3.44681 46.2302 2.42553C47.0863 1.2766 48.0647 0 50.1439 0C50.6331 0 51 0.382979 51 0.893617C51 1.40426 50.6331 1.78723 50.1439 1.78723C49.0432 1.78723 48.554 2.42553 47.8201 3.44681C46.964 4.59575 45.8633 6 43.9065 6Z" fill="#00519C"/>
</svg>
